<svg width="168" height="42" viewBox="0 0 168 42" fill="none" xmlns="http://www.w3.org/2000/svg">
<path d="M10.5705 10.4955H31.7664L21.1685 21L31.7664 31.4955H10.5705V10.4955ZM0 0V42H31.7939L42.3919 31.4955V10.4955L31.7939 0H0Z" fill="#EB2533"/>
<path d="M71.6282 28.9785H74.2318L76.3404 32.377L78.4582 28.9785H81.0527V37.7656H78.6049V32.7223L76.3404 36.1572H76.2946L74.0393 32.7405V37.7656H71.6282V28.9785Z" fill="#E78625"/>
<path d="M87.1766 28.9785H84.7104V37.7656H87.1766V28.9785Z" fill="#E78625"/>
<path d="M94.8775 25.2979L97.1052 24.5801L98.4071 26.8973H96.7385L94.8775 25.2979ZM93.4473 26.3157H95.4L97.0227 28.3784H95.4734L94.4099 27.606L93.3464 28.3784H91.8246L93.4473 26.3157ZM90.8345 28.9782H97.967V31.05H93.2731V32.3767H97.527V34.2759H93.2731V35.6662H98.0312V37.738H90.8345V28.9782Z" fill="#E78625"/>
<path d="M101.332 28.9785H103.624L107.273 33.622V28.9785H109.702V37.7656H107.548L103.761 32.9404V37.7656H101.332V28.9785Z" fill="#E78625"/>
<path d="M123.151 35.8118C123.903 35.8118 124.325 35.521 124.325 35.0031C124.325 34.5124 123.949 34.2125 123.124 34.2125H121.29V35.8391L123.151 35.8118ZM122.793 32.4769C123.554 32.4769 123.958 32.2315 123.958 31.7136C123.958 31.232 123.591 30.9684 122.839 30.9684H121.244V32.4587L122.793 32.4769ZM118.851 28.9784H123.435C123.872 28.942 124.311 28.9933 124.727 29.1291C125.143 29.265 125.526 29.4826 125.856 29.769C126.043 29.9541 126.19 30.1755 126.288 30.4193C126.386 30.6631 126.432 30.9243 126.424 31.1865C126.436 31.6139 126.31 32.0338 126.064 32.3852C125.818 32.7366 125.466 33.0011 125.058 33.1402C125.561 33.2347 126.014 33.503 126.336 33.8973C126.659 34.2916 126.829 34.7865 126.818 35.2938C126.818 36.8204 125.59 37.7201 123.463 37.7201H118.879L118.851 28.9784Z" fill="#E78625"/>
<path d="M134.602 23.6079L136.839 24.3258L134.959 25.916H133.291L134.602 23.6079ZM135.161 34.3033L134.171 31.8044L133.172 34.276L135.161 34.3033ZM131.705 26.1886H133.107C133.171 26.4198 133.316 26.6208 133.516 26.7557C133.716 26.8906 133.958 26.9505 134.198 26.9247C134.439 26.9524 134.682 26.8932 134.882 26.7581C135.083 26.6229 135.227 26.4208 135.289 26.1886H136.692C136.677 26.4916 136.598 26.7883 136.463 27.0602C136.327 27.3321 136.136 27.5735 135.902 27.7694C135.669 27.9654 135.397 28.1116 135.104 28.1992C134.811 28.2868 134.502 28.3138 134.198 28.2786C133.895 28.3098 133.588 28.28 133.297 28.1909C133.006 28.1017 132.735 27.9552 132.502 27.76C132.27 27.5648 132.079 27.325 131.942 27.055C131.805 26.785 131.724 26.4903 131.705 26.1886ZM133.007 28.9147H135.381L139.149 37.7654H136.518L135.867 36.1934H132.457L131.815 37.7654H129.266L133.007 28.9147Z" fill="#E78625"/>
<path d="M141.743 33.3676C141.743 32.7632 141.865 32.1649 142.101 31.6076C142.337 31.0504 142.683 30.5454 143.118 30.1223C143.554 29.6992 144.07 29.3664 144.637 29.1435C145.203 28.9206 145.809 28.812 146.419 28.8241C147.149 28.7883 147.877 28.9362 148.534 29.254C149.191 29.5717 149.757 30.049 150.178 30.6415L148.344 32.0681C148.131 31.7502 147.843 31.4893 147.503 31.3086C147.164 31.1278 146.786 31.0329 146.401 31.0322C146.106 31.0425 145.817 31.1114 145.55 31.2349C145.283 31.3585 145.044 31.5341 144.848 31.7512C144.651 31.9684 144.5 32.2226 144.405 32.4988C144.309 32.7749 144.271 33.0673 144.292 33.3585C144.268 33.6511 144.305 33.9454 144.399 34.2237C144.493 34.502 144.643 34.7585 144.841 34.9776C145.038 35.1967 145.277 35.374 145.546 35.4987C145.814 35.6233 146.105 35.6928 146.401 35.7029C146.797 35.6986 147.186 35.5997 147.536 35.4147C147.885 35.2296 148.184 34.9638 148.408 34.6397L150.242 35.9392C149.817 36.577 149.231 37.0941 148.543 37.4398C147.855 37.7855 147.088 37.9479 146.318 37.9111C145.713 37.9222 145.112 37.8122 144.551 37.5878C143.99 37.3634 143.48 37.0291 143.052 36.605C142.624 36.1809 142.287 35.6756 142.06 35.1193C141.834 34.5631 141.723 33.9673 141.734 33.3676" fill="#E78625"/>
<path d="M168 22.4632H164.755V7.92407H168V22.4632ZM142.468 7.92407H145.695V22.4632H142.468V16.7021H135.894V22.4632H132.622V7.92407H135.894V13.7397H142.468V7.92407ZM125.507 14.9665L131.989 22.2361V22.4178H128.047L122.61 16.2023V22.4632H119.337V7.92407H122.61V13.9396L127.506 7.92407H131.466L125.507 14.9665ZM109.61 7.92407H112.837V22.4632H109.61V16.7021H103.037V22.4632H99.7642V7.92407H103.037V13.7397H109.61V7.92407ZM94.0251 7.92407H97.3255V22.4632H94.511L87.3326 13.3126V22.4632H84.023V7.92407H86.8375L94.0251 17.1201V7.92407ZM72.4258 17.0656L74.9652 11.159L77.4864 17.0656H72.4258ZM73.1867 7.86955L66.595 22.4087H70.1246L71.1881 19.9189H78.724L79.76 22.4632H83.3079L76.7163 7.92407L73.1867 7.86955ZM154.698 6.7155H152.727V6.6428L154.826 4.70728H155.853L157.934 6.6428V6.7155H155.981L155.321 6.13393L154.698 6.7155ZM155.339 19.8462C154.714 19.8687 154.091 19.7642 153.508 19.539C152.926 19.3139 152.395 18.9729 151.951 18.5371C151.506 18.1012 151.156 17.5798 150.922 17.0048C150.688 16.4298 150.575 15.8134 150.59 15.1936C150.566 14.571 150.672 13.95 150.9 13.3694C151.128 12.7888 151.474 12.2609 151.917 11.8186C152.36 11.3762 152.89 11.0289 153.474 10.7982C154.058 10.5675 154.684 10.4583 155.312 10.4775C155.94 10.4583 156.566 10.5675 157.15 10.7982C157.734 11.0289 158.264 11.3762 158.707 11.8186C159.149 12.2609 159.496 12.7888 159.724 13.3694C159.952 13.95 160.057 14.571 160.033 15.1936C160.065 15.8173 159.964 16.4405 159.738 17.0233C159.512 17.6061 159.166 18.1357 158.721 18.5781C158.277 19.0204 157.744 19.3658 157.157 19.592C156.57 19.8182 155.941 19.9202 155.312 19.8916L155.339 19.8462ZM155.312 7.56059C150.618 7.56059 147.382 10.4593 147.382 15.1936C147.382 19.928 150.618 22.8267 155.312 22.8267C160.006 22.8267 163.242 19.937 163.242 15.1936C163.242 10.4502 160.015 7.56059 155.312 7.56059ZM59.8934 19.4827H57.143V10.8501H59.8934C62.9554 10.8501 63.9639 12.9492 63.9639 15.0483C63.9639 17.1473 63.0471 19.4827 59.8934 19.4827ZM59.8934 7.91498H53.8701V22.4541H59.8934C65.0365 22.4541 67.2276 18.883 67.2276 15.0755C67.2276 11.2681 64.9815 7.89681 59.8934 7.89681" fill="#EE2031"/>
</svg>
