<svg width="31" height="31" viewBox="0 0 31 31" fill="none" xmlns="http://www.w3.org/2000/svg">
<path d="M23.0205 0.553711L30.4463 7.98145V23.0234L23.0205 30.4463H0.553711V0.553711H23.0205Z" stroke="#707070" stroke-width="1.10714"/>
<path d="M14.2219 7.61475C17.8711 7.61475 20.8292 10.573 20.8293 14.2222C20.8293 17.8715 17.8712 20.8296 14.2219 20.8296C10.5727 20.8295 7.6145 17.8714 7.6145 14.2222C7.61462 10.573 10.5728 7.61486 14.2219 7.61475ZM14.2219 8.05225C10.8144 8.05236 8.05212 10.8147 8.052 14.2222C8.052 17.6298 10.8143 20.392 14.2219 20.3921C17.6296 20.3921 20.3918 17.6298 20.3918 14.2222C20.3917 10.8146 17.6295 8.05225 14.2219 8.05225Z" stroke="#707070"/>
<path d="M18.7744 18.7749C18.8479 18.7014 18.9665 18.7014 19.04 18.7749L23.2998 23.0337C23.3733 23.1072 23.3733 23.2268 23.2998 23.3003C23.2263 23.3738 23.1067 23.3738 23.0332 23.3003L18.7744 19.0405C18.7009 18.967 18.7009 18.8484 18.7744 18.7749Z" stroke="#707070" stroke-width="1.06101"/>
<path d="M19.7703 17.8682C19.8739 17.8743 19.9529 17.9628 19.947 18.0664C19.911 18.6714 19.7928 19.1201 19.4802 19.4297C19.1709 19.7361 18.7066 19.8707 18.0779 19.9463C17.9748 19.9586 17.8815 19.8852 17.8689 19.7822C17.8565 19.679 17.9298 19.5847 18.033 19.5723C18.6482 19.4983 19.0015 19.3749 19.2156 19.1631C19.4256 18.9551 19.5364 18.6265 19.571 18.0449C19.5772 17.9412 19.6665 17.862 19.7703 17.8682Z" stroke="#707070" stroke-width="1.06101"/>
</svg>
