<svg width="44" height="47" viewBox="0 0 44 47" fill="none" xmlns="http://www.w3.org/2000/svg">
<path fill-rule="evenodd" clip-rule="evenodd" d="M8.875 3.75391C6.04454 3.75391 3.75 6.04844 3.75 8.8789V37.7289C3.75 40.5594 6.04454 42.8539 8.875 42.8539H34.875C37.7055 42.8539 40 40.5594 40 37.7289V14.3789C40 13.3434 40.8395 12.5039 41.875 12.5039C42.9105 12.5039 43.75 13.3434 43.75 14.3789V37.7289C43.75 42.6304 39.7765 46.6039 34.875 46.6039H8.875C3.97347 46.6039 0 42.6304 0 37.7289V8.8789C0 3.97737 3.97347 0.00390625 8.875 0.00390625H29.375C30.4105 0.00390625 31.25 0.843372 31.25 1.87891C31.25 2.91444 30.4105 3.75391 29.375 3.75391H8.875Z" fill="#EE2031"/>
<path fill-rule="evenodd" clip-rule="evenodd" d="M27.5 2.69984C27.5 0.299366 30.4023 -0.902823 32.0997 0.794583L42.9592 11.6541C44.6566 13.3515 43.4544 16.2538 41.0539 16.2538H30.1944C28.7063 16.2538 27.5 15.0474 27.5 13.5593V2.69984ZM31.25 5.2482V12.5038H38.5056L31.25 5.2482Z" fill="#EE2031"/>
<path fill-rule="evenodd" clip-rule="evenodd" d="M14.375 32.5039C14.375 31.4684 15.2145 30.6289 16.25 30.6289H27.5C28.5355 30.6289 29.375 31.4684 29.375 32.5039C29.375 33.5394 28.5355 34.3789 27.5 34.3789H16.25C15.2145 34.3789 14.375 33.5394 14.375 32.5039Z" fill="#EE2031"/>
<path fill-rule="evenodd" clip-rule="evenodd" d="M11.875 25.0039C11.875 23.9684 12.7145 23.1289 13.75 23.1289H30C31.0355 23.1289 31.875 23.9684 31.875 25.0039C31.875 26.0394 31.0355 26.8789 30 26.8789H13.75C12.7145 26.8789 11.875 26.0394 11.875 25.0039Z" fill="#EE2031"/>
</svg>
