<svg width="100" height="75" viewBox="0 0 100 75" fill="none" xmlns="http://www.w3.org/2000/svg">
<path d="M64.15 37.8998C62.85 34.6498 53.95 12.1498 51.8 6.7498C51.5 6.0498 50.85 5.5498 50.05 5.5498C50.05 5.5498 39.85 31.6998 37.85 36.7498C35.6 42.4498 32.9 44.9998 29.2 45.6998V45.9998H41.5V45.6998C37.65 45.6998 37.15 39.4998 38.95 34.6498C39.1 34.2498 39.7 32.7498 40.55 30.5498C40.55 30.5498 40.85 29.6498 41 29.2998C41.4 30.3498 44.65 38.8498 45.2 40.3498C46.8 44.5498 46.4 45.6498 43.6 45.6498V45.9998C43.6 45.9998 53.35 45.9998 57 45.9998C56.5 45.7998 55.05 45.9998 51.95 37.8998C51.15 35.7998 48.1 27.7498 44.85 19.4998C45.3 18.3498 45.75 17.2498 46.15 16.1498C46.55 17.1498 49.15 23.9998 51.6 30.2998C51.6 30.2998 55 38.5998 55.7 40.3498C57.55 44.5498 59.4 45.9998 62.55 45.9998H70.85V45.6998C67.25 45.6998 65.7 41.5998 64.15 37.8998Z" fill="white"/>
<path d="M23.65 66.8998H23.2V65.5998H21.75V66.8998H21.3V64.0498H21.75V65.1998H23.2V64.0498H23.65V66.8998Z" fill="white"/>
<path d="M28.5 64.45C28.8 64.75 28.95 65.1 28.95 65.5C28.95 65.9 28.8 66.25 28.5 66.55C28.2 66.85 27.85 67 27.45 67C27.05 67 26.7 66.85 26.4 66.55C26.1 66.25 25.95 65.9 25.95 65.5C25.95 65.1 26.1 64.75 26.4 64.45C26.7 64.15 27.05 64 27.45 64C27.85 64 28.2 64.15 28.5 64.45ZM26.7 64.75C26.5 64.95 26.4 65.2 26.4 65.5C26.4 65.8 26.5 66.05 26.7 66.25C26.9 66.45 27.15 66.55 27.45 66.55C27.75 66.55 28 66.45 28.2 66.25C28.4 66.05 28.5 65.8 28.5 65.5C28.5 65.2 28.4 64.95 28.2 64.75C28 64.55 27.75 64.45 27.45 64.45C27.15 64.45 26.9 64.55 26.7 64.75Z" fill="white"/>
<path d="M33.6 64.4498H32.65V66.8998H32.2V64.4498H31.25V64.0498H33.65L33.6 64.4498Z" fill="white"/>
<path d="M37.8 64.4498H36.4V65.1998H37.45V65.5998H36.4V66.4998H37.8V66.8998H35.9V64.0498H37.8V64.4498Z" fill="white"/>
<path d="M40.55 66.4998H41.85V66.8998H40.1V64.0498H40.55V66.4998Z" fill="white"/>
<path d="M48.4 66.3498L48.85 66.9498H48.3L48.1 66.6998C47.85 66.8998 47.6 66.9998 47.3 66.9998C47.05 66.9998 46.8 66.9498 46.65 66.7998C46.5 66.6498 46.4 66.4498 46.4 66.2498C46.4 66.0998 46.45 65.9498 46.55 65.7998C46.65 65.6498 46.8 65.5498 47 65.3498C46.8 65.0998 46.7 64.8998 46.7 64.6998C46.7 64.4998 46.75 64.3498 46.9 64.2498C47 64.1498 47.2 64.0498 47.4 64.0498C47.6 64.0498 47.75 64.0998 47.9 64.1998C48 64.2998 48.1 64.4498 48.1 64.6498C48.1 64.8998 47.95 65.1498 47.6 65.3998L48.1 66.0498C48.2 65.8998 48.35 65.6998 48.5 65.4498L48.85 65.6998C48.6 66.0498 48.45 66.2998 48.4 66.3498ZM47.85 66.3498L47.25 65.6498C47.15 65.7498 47.1 65.7998 47.05 65.7998C47 65.8498 46.95 65.8998 46.9 65.9498C46.85 65.9998 46.85 66.0998 46.85 66.1498C46.85 66.2498 46.9 66.3498 47 66.4498C47.1 66.5498 47.2 66.5498 47.35 66.5498C47.5 66.5498 47.65 66.4998 47.85 66.3498ZM47.2 64.4998C47.15 64.5498 47.15 64.5998 47.15 64.6998C47.15 64.7998 47.2 64.9498 47.35 65.0998C47.55 64.9498 47.65 64.7998 47.65 64.6498C47.65 64.4998 47.55 64.3998 47.4 64.3998C47.3 64.3998 47.25 64.4498 47.2 64.4998Z" fill="white"/>
<path d="M55.25 66.8998L54.45 65.7998H53.9V66.8998H53.45V64.0498H54.5C54.8 64.0498 55 64.1498 55.2 64.2998C55.4 64.4498 55.45 64.6498 55.45 64.9498C55.45 65.1498 55.4 65.2998 55.3 65.4498C55.2 65.5998 55.05 65.6998 54.9 65.7498L55.75 66.9498H55.25V66.8998ZM53.9 65.3998H54.5C54.65 65.3998 54.8 65.3498 54.85 65.2498C54.95 65.1498 55 65.0498 55 64.8998C55 64.7498 54.95 64.6498 54.85 64.5498C54.75 64.4498 54.65 64.3998 54.5 64.3998H53.9V65.3998Z" fill="white"/>
<path d="M59.9 64.4498H58.5V65.1998H59.55V65.5998H58.5V66.4998H59.9V66.8998H58V64.0498H59.9V64.4498Z" fill="white"/>
<path d="M63.85 64.1499C64 64.2499 64.15 64.3499 64.25 64.4999L63.95 64.7499C63.8 64.4999 63.6 64.3999 63.35 64.3999C63.25 64.3999 63.15 64.4499 63.05 64.4999C62.95 64.5499 62.9 64.6499 62.9 64.7499C62.9 64.8499 62.95 64.8999 63 64.9999C63.05 65.0499 63.15 65.0999 63.3 65.1999L63.6 65.3499C63.85 65.4499 64 65.5499 64.1 65.6999C64.2 65.7999 64.25 65.9999 64.25 66.1499C64.25 66.3999 64.15 66.5999 64 66.7499C63.8 66.8999 63.6 66.9999 63.3 66.9999C63.05 66.9999 62.85 66.9499 62.65 66.8499C62.45 66.7499 62.3 66.5999 62.2 66.3999L62.55 66.1499C62.75 66.4499 63 66.5999 63.3 66.5999C63.45 66.5999 63.55 66.5499 63.65 66.4999C63.75 66.4499 63.8 66.3499 63.8 66.1999C63.8 66.0999 63.75 65.9999 63.7 65.9499C63.65 65.8999 63.55 65.8499 63.4 65.7499L63.1 65.5999C62.9 65.4999 62.7 65.3999 62.6 65.2499C62.5 65.1499 62.4 64.9499 62.4 64.7999C62.4 64.5499 62.5 64.3999 62.65 64.2499C62.8 64.0999 63.05 64.0499 63.3 64.0499C63.5 63.9999 63.7 64.0499 63.85 64.1499Z" fill="white"/>
<path d="M69.1 64.45C69.4 64.75 69.55 65.1 69.55 65.5C69.55 65.9 69.4 66.25 69.1 66.55C68.8 66.85 68.45 67 68.05 67C67.65 67 67.3 66.85 67 66.55C66.7 66.25 66.55 65.9 66.55 65.5C66.55 65.1 66.7 64.75 67 64.45C67.3 64.15 67.65 64 68.05 64C68.45 64 68.8 64.15 69.1 64.45ZM67.3 64.75C67.1 64.95 67 65.2 67 65.5C67 65.8 67.1 66.05 67.3 66.25C67.5 66.45 67.75 66.55 68.05 66.55C68.35 66.55 68.6 66.45 68.8 66.25C69 66.05 69.1 65.8 69.1 65.5C69.1 65.2 69 64.95 68.8 64.75C68.6 64.55 68.35 64.45 68.05 64.45C67.75 64.45 67.5 64.55 67.3 64.75Z" fill="white"/>
<path d="M73.65 66.8998L72.85 65.7998H72.3V66.8998H71.85V64.0498H72.9C73.2 64.0498 73.4 64.1498 73.6 64.2998C73.8 64.4498 73.85 64.6498 73.85 64.9498C73.85 65.1498 73.8 65.2998 73.7 65.4498C73.6 65.5998 73.45 65.6998 73.3 65.7498L74.15 66.9498H73.65V66.8998ZM72.3 65.3998H72.9C73.05 65.3998 73.2 65.3498 73.25 65.2498C73.35 65.1498 73.4 65.0498 73.4 64.8998C73.4 64.7498 73.35 64.6498 73.25 64.5498C73.15 64.4498 73.05 64.3998 72.9 64.3998H72.3V65.3998Z" fill="white"/>
<path d="M78.8 64.4498H77.85V66.8998H77.4V64.4498H76.45V64.0498H78.85V64.4498H78.8Z" fill="white"/>
<path d="M12 59.9997C12.1 60.0997 12.2 60.1497 12.3 60.1497V60.3497H9.49999V60.1497C9.74999 60.1497 9.89999 60.0997 9.99999 60.0497C10.1 59.9997 10.15 59.8997 10.15 59.7997C10.15 59.6997 10.1 59.5497 10.05 59.3497L9.49999 57.7997H7.44999L7.19999 58.4497C7.04999 58.8997 6.94999 59.2497 6.94999 59.4997C6.94999 59.7497 6.99999 59.8997 7.14999 59.9997C7.29999 60.0997 7.49999 60.1497 7.74999 60.1497V60.3497H5.89999V60.1497C6.19999 60.0997 6.44999 59.7497 6.69999 59.1497L8.79999 53.6997H9.49999L11.75 59.5497C11.8 59.7997 11.9 59.9497 12 59.9997ZM9.39999 57.6497L8.49999 55.1497L7.54999 57.6497H9.39999Z" fill="white"/>
<path d="M18.35 57.95C18.15 57.45 17.95 57.25 17.65 57.25H17.05V59.4C17.05 59.65 17.05 59.8 17.1 59.9C17.15 60 17.2 60.1 17.3 60.1C17.4 60.15 17.55 60.15 17.75 60.15V60.35H14.9V60.15C15.1 60.15 15.25 60.1 15.35 60.1C15.45 60.05 15.5 60 15.55 59.9C15.6 59.8 15.6 59.6 15.6 59.4V54.75C15.6 54.5 15.6 54.35 15.55 54.25C15.5 54.15 15.45 54.05 15.35 54.05C15.25 54 15.1 54 14.9 53.95V53.75H17.75C18.6 53.75 19.25 53.9 19.7 54.2C20.15 54.5 20.35 54.9 20.35 55.4C20.35 55.85 20.2 56.25 19.85 56.55C19.55 56.9 19 57.1 18.25 57.2C18.8 57.25 19.25 57.4 19.55 57.65C19.85 57.9 20.1 58.35 20.3 58.95C20.5 59.55 20.65 59.9 20.75 60C20.85 60.1 21 60.15 21.15 60.2V60.4H19.2C18.8 59.25 18.55 58.45 18.35 57.95ZM17.05 54.75V57.05H17.45C17.95 57.05 18.3 56.9 18.5 56.65C18.7 56.4 18.8 56 18.8 55.5C18.8 55 18.7 54.6 18.55 54.35C18.35 54.1 18.1 53.95 17.65 53.95C17.5 53.95 17.35 53.95 17.3 54C17.2 54.05 17.15 54.1 17.15 54.25C17.1 54.35 17.05 54.5 17.05 54.75Z" fill="white"/>
<path d="M26.55 53.95C26.35 53.95 26.2 54 26.1 54.05C26 54.1 25.95 54.15 25.9 54.25C25.85 54.35 25.85 54.55 25.85 54.75V59.4C25.85 59.65 25.85 59.8 25.9 59.9C25.95 60 26 60.1 26.1 60.1C26.2 60.15 26.35 60.15 26.55 60.15V60.35H23.7V60.15C23.9 60.15 24.05 60.1 24.15 60.1C24.25 60.05 24.3 60 24.35 59.9C24.4 59.8 24.4 59.6 24.4 59.4V54.75C24.4 54.5 24.4 54.35 24.35 54.25C24.3 54.15 24.25 54.05 24.15 54.05C24.05 54 23.9 54 23.7 53.95V53.75H26.55V53.95Z" fill="white"/>
<path d="M35.2 59.9997C35.3 60.0997 35.4 60.1497 35.5 60.1497V60.3497H32.7V60.1497C32.95 60.1497 33.1 60.0997 33.2 60.0497C33.3 59.9997 33.35 59.8997 33.35 59.7997C33.35 59.6997 33.3 59.5497 33.25 59.3497L32.7 57.7997H30.65L30.4 58.4497C30.25 58.8997 30.15 59.2497 30.15 59.4997C30.15 59.7497 30.2 59.8997 30.35 59.9997C30.5 60.0997 30.7 60.1497 30.95 60.1497V60.3497H29.1V60.1497C29.4 60.0997 29.65 59.7497 29.9 59.1497L32 53.6997H32.65L34.9 59.5497C35 59.7997 35.1 59.9497 35.2 59.9997ZM32.6 57.6497L31.7 55.1497L30.75 57.6497H32.6Z" fill="white"/>
<path d="M85.8 60C85.9 60.1 86 60.15 86.1 60.15V60.35H83.3V60.15C83.55 60.15 83.7 60.1 83.8 60.05C83.9 60 83.95 59.9 83.95 59.8C83.95 59.7 83.9 59.55 83.85 59.35L83.3 57.8H81.25L81 58.5C80.85 58.95 80.75 59.3 80.75 59.55C80.75 59.8 80.8 59.95 80.95 60.05C81.1 60.15 81.3 60.2 81.55 60.2V60.4H79.7V60.2C80 60.15 80.25 59.8 80.5 59.2L82.6 53.75H83.25L85.5 59.6C85.6 59.8 85.7 59.95 85.8 60ZM83.2 57.65L82.3 55.15L81.35 57.65H83.2Z" fill="white"/>
<path d="M40.75 54.1C40.65 54 40.55 53.95 40.45 53.95V53.75H43.25V53.95C43 53.95 42.85 54 42.75 54.05C42.65 54.1 42.6 54.2 42.6 54.3C42.6 54.4 42.65 54.55 42.7 54.75L43.25 56.3L44.25 59L45.55 55.65C45.7 55.2 45.8 54.85 45.8 54.6C45.8 54.35 45.75 54.2 45.6 54.1C45.45 54 45.25 53.95 45 53.95V53.75H46.85V53.95C46.55 54 46.3 54.35 46.05 54.95L43.95 60.4H43.3L41.05 54.55C40.95 54.35 40.85 54.2 40.75 54.1Z" fill="white"/>
<path d="M63 53.9497C62.8 53.9997 62.65 54.0497 62.55 54.0997C62.45 54.1497 62.4 54.2997 62.35 54.4497C62.3 54.5997 62.3 54.8497 62.3 55.1497V60.3497H61.8L57.75 55.1997V58.7997C57.75 59.1497 57.75 59.4497 57.8 59.5997C57.85 59.7497 57.9 59.8997 58.05 59.9497C58.15 60.0497 58.35 60.0997 58.65 60.0997V60.2997H56.85V60.0997C57.05 60.0497 57.2 59.9997 57.3 59.9497C57.4 59.8997 57.45 59.7497 57.5 59.5997C57.55 59.4497 57.55 59.1997 57.55 58.8997V54.6997C57.55 54.4497 57.55 54.2997 57.5 54.1997C57.45 54.0997 57.4 53.9997 57.3 53.9997C57.2 53.9497 57.05 53.9497 56.85 53.8997V53.6997H58.45L62.05 58.1497V55.2497C62.05 54.8997 62.05 54.5997 62 54.4497C61.95 54.2997 61.9 54.1497 61.75 54.0997C61.65 53.9997 61.4 53.9497 61.15 53.9497V53.7497H62.95V53.9497H63Z" fill="white"/>
<path d="M68.7 53.7498C68.95 53.8498 69.2 53.9998 69.5 54.1998C69.6 54.2498 69.65 54.2998 69.7 54.2998C69.75 54.2998 69.8 54.2498 69.85 54.1498C69.9 54.0498 69.9 53.8998 69.95 53.6998H70.15C70.15 54.0998 70.1 54.8998 70.1 55.9498H69.9C69.85 55.4998 69.8 55.1998 69.7 54.8998C69.6 54.6498 69.45 54.3998 69.2 54.2498C69.05 54.0998 68.85 53.9998 68.65 53.8998C68.45 53.7998 68.2 53.7998 68 53.7998C67.55 53.7998 67.2 53.9498 66.9 54.2498C66.6 54.5498 66.4 54.9498 66.25 55.3998C66.1 55.8998 66.05 56.3998 66.05 56.9998C66.05 59.1498 66.65 60.2498 67.85 60.2498C68.1 60.2498 68.35 60.1998 68.5 60.0498C68.6 59.9998 68.65 59.9498 68.65 59.8498C68.7 59.7998 68.7 59.6998 68.7 59.5498V58.6498C68.7 58.3498 68.7 58.1498 68.65 57.9998C68.6 57.8498 68.5 57.7498 68.4 57.6998C68.25 57.6498 68.05 57.5998 67.8 57.5998V57.4998H70.65V57.6998C70.55 57.6998 70.45 57.7498 70.4 57.7998C70.35 57.8498 70.3 57.8998 70.3 57.9998C70.3 58.0998 70.25 58.2998 70.25 58.4998V60.3498H70.05C70.05 60.1998 70 60.0998 69.95 59.9998C69.9 59.8998 69.85 59.8498 69.75 59.8498C69.65 59.8498 69.5 59.8998 69.25 60.0498C68.7 60.3498 68.2 60.4998 67.75 60.4998C66.7 60.4998 65.85 60.1998 65.3 59.5998C64.75 58.9998 64.45 58.1998 64.45 57.0998C64.45 56.3998 64.6 55.7998 64.9 55.2498C65.2 54.6998 65.6 54.2998 66.1 53.9998C66.6 53.6998 67.2 53.5498 67.85 53.5498C68.1 53.5998 68.4 53.6498 68.7 53.7498Z" fill="white"/>
<path d="M77.65 54H76.7V59.3C76.7 59.7 76.75 59.95 76.85 60.1C76.95 60.25 77.1 60.3 77.35 60.3V60.5H74.8V60.3C75.1 60.3 75.25 60.2 75.35 60.05C75.45 59.9 75.5 59.65 75.5 59.25V54H74.75C74.3 54 74 54.05 73.8 54.2C73.6 54.35 73.5 54.6 73.45 54.9H73.25V53.75H78.95V54.9H78.85C78.75 54.55 78.65 54.3 78.4 54.15C78.15 54.05 77.85 54 77.65 54Z" fill="white"/>
<path d="M53 60.2998V59.4498C52.6 59.8498 52.25 60.0998 51.95 60.2498C51.65 60.3998 51.3 60.4498 50.9 60.4498C50.25 60.4498 49.7 60.2498 49.3 59.8498C48.9 59.4498 48.7 58.9498 48.7 58.2998V54.8998C48.7 54.5998 48.65 54.3998 48.55 54.2998C48.45 54.1998 48.2 54.0998 47.9 53.9998V53.7998H50.95V53.9998C50.6 54.0998 50.4 54.1498 50.3 54.2998C50.2 54.3998 50.15 54.6498 50.15 54.9498V58.5998C50.15 58.9998 50.25 59.2998 50.45 59.5498C50.65 59.7998 50.95 59.8998 51.35 59.8998C51.9 59.8998 52.45 59.5998 53 58.9998V54.9498C53 54.6498 52.95 54.4498 52.85 54.3498C52.75 54.2498 52.55 54.1498 52.2 54.0498V53.8498H55.25V54.0498C54.95 54.0998 54.75 54.1998 54.6 54.3498C54.5 54.4498 54.45 54.7498 54.45 55.0998V59.2498C54.45 59.5498 54.5 59.7498 54.6 59.8498C54.7 59.9498 54.9 60.0498 55.25 60.1498V60.3498H53V60.2998Z" fill="white"/>
<path d="M91.85 60.2998V59.4498C91.45 59.8498 91.1 60.0998 90.8 60.2498C90.5 60.3998 90.15 60.4498 89.75 60.4498C89.1 60.4498 88.55 60.2498 88.15 59.8498C87.75 59.4498 87.55 58.9498 87.55 58.2998V54.8998C87.55 54.5998 87.5 54.3998 87.4 54.2998C87.3 54.1998 87.05 54.0998 86.75 53.9998V53.7998H89.8V53.9998C89.45 54.0998 89.25 54.1498 89.15 54.2998C89.05 54.3998 89 54.6498 89 54.9498V58.5998C89 58.9998 89.1 59.2998 89.3 59.5498C89.5 59.7998 89.8 59.8998 90.2 59.8998C90.75 59.8998 91.3 59.5998 91.85 58.9998V54.9498C91.85 54.6498 91.8 54.4498 91.7 54.3498C91.6 54.2498 91.4 54.1498 91.05 54.0498V53.8498H94.1V54.0498C93.8 54.0998 93.6 54.1998 93.45 54.3498C93.35 54.4498 93.3 54.7498 93.3 55.0998V59.2498C93.3 59.5498 93.35 59.7498 93.45 59.8498C93.55 59.9498 93.75 60.0498 94.1 60.1498V60.3498H91.85V60.2998Z" fill="white"/>
</svg>
