<svg width="144" height="109" viewBox="0 0 144 109" fill="none" xmlns="http://www.w3.org/2000/svg">
<path d="M92.376 55.0817C90.504 50.3584 77.688 17.6584 74.592 9.81041C74.16 8.79307 73.224 8.06641 72.072 8.06641C72.072 8.06641 57.384 46.0711 54.504 53.4104C51.264 61.6944 47.376 65.4004 42.048 66.4177V66.8537H59.76V66.4177C54.216 66.4177 53.496 57.4071 56.088 50.3584C56.304 49.7771 57.168 47.5971 58.392 44.3997C58.392 44.3997 58.824 43.0917 59.04 42.5831C59.616 44.1091 64.296 56.4624 65.088 58.6424C67.392 64.7464 66.816 66.3451 62.784 66.3451V66.8537C62.784 66.8537 76.824 66.8537 82.08 66.8537C81.36 66.5631 79.272 66.8537 74.808 55.0817C73.656 52.0297 69.264 40.3304 64.584 28.3404C65.232 26.6691 65.88 25.0704 66.456 23.4717C67.032 24.9251 70.776 34.8804 74.304 44.0364C74.304 44.0364 79.2 56.0991 80.208 58.6424C82.872 64.7464 85.536 66.8537 90.072 66.8537H102.024V66.4177C96.84 66.4177 94.608 60.4591 92.376 55.0817Z" fill="#FFB800" fill-opacity="0.3"/>
<path d="M34.056 97.2279H33.408V95.3386H31.32V97.2279H30.672V93.0859H31.32V94.7573H33.408V93.0859H34.056V97.2279Z" fill="#707070" fill-opacity="0.3"/>
<path d="M41.04 93.6677C41.472 94.1037 41.688 94.6123 41.688 95.1937C41.688 95.775 41.472 96.2837 41.04 96.7197C40.608 97.1557 40.104 97.3737 39.528 97.3737C38.952 97.3737 38.448 97.1557 38.016 96.7197C37.584 96.2837 37.368 95.775 37.368 95.1937C37.368 94.6123 37.584 94.1037 38.016 93.6677C38.448 93.2317 38.952 93.0137 39.528 93.0137C40.104 93.0137 40.608 93.2317 41.04 93.6677ZM38.448 94.1037C38.16 94.3943 38.016 94.7577 38.016 95.1937C38.016 95.6297 38.16 95.993 38.448 96.2837C38.736 96.5743 39.096 96.7197 39.528 96.7197C39.96 96.7197 40.32 96.5743 40.608 96.2837C40.896 95.993 41.04 95.6297 41.04 95.1937C41.04 94.7577 40.896 94.3943 40.608 94.1037C40.32 93.813 39.96 93.6677 39.528 93.6677C39.096 93.6677 38.736 93.813 38.448 94.1037Z" fill="#707070" fill-opacity="0.3"/>
<path d="M48.384 93.6673H47.016V97.2279H46.368V93.6673H45V93.0859H48.456L48.384 93.6673Z" fill="#707070" fill-opacity="0.3"/>
<path d="M54.432 93.6673H52.416V94.7573H53.928V95.3386H52.416V96.6466H54.432V97.2279H51.696V93.0859H54.432V93.6673Z" fill="#707070" fill-opacity="0.3"/>
<path d="M58.392 96.6466H60.264V97.2279H57.744V93.0859H58.392V96.6466Z" fill="#707070" fill-opacity="0.3"/>
<path d="M69.696 96.4286L70.344 97.3006H69.552L69.264 96.9373C68.904 97.2279 68.544 97.3733 68.112 97.3733C67.752 97.3733 67.392 97.3006 67.176 97.0826C66.96 96.8646 66.816 96.5739 66.816 96.2833C66.816 96.0653 66.888 95.8473 67.032 95.6293C67.176 95.4113 67.392 95.2659 67.68 94.9753C67.392 94.6119 67.248 94.3213 67.248 94.0306C67.248 93.7399 67.32 93.5219 67.536 93.3766C67.68 93.2313 67.968 93.0859 68.256 93.0859C68.544 93.0859 68.76 93.1586 68.976 93.3039C69.12 93.4493 69.264 93.6673 69.264 93.9579C69.264 94.3213 69.048 94.6846 68.544 95.0479L69.264 95.9926C69.408 95.7746 69.624 95.4839 69.84 95.1206L70.344 95.4839C69.984 95.9926 69.768 96.3559 69.696 96.4286ZM68.904 96.4286L68.04 95.4113C67.896 95.5566 67.824 95.6293 67.752 95.6293C67.68 95.7019 67.608 95.7746 67.536 95.8473C67.464 95.9199 67.464 96.0653 67.464 96.1379C67.464 96.2833 67.536 96.4286 67.68 96.5739C67.824 96.7193 67.968 96.7193 68.184 96.7193C68.4 96.7193 68.616 96.6466 68.904 96.4286ZM67.968 93.7399C67.896 93.8126 67.896 93.8853 67.896 94.0306C67.896 94.1759 67.968 94.3939 68.184 94.6119C68.472 94.3939 68.616 94.1759 68.616 93.9579C68.616 93.7399 68.472 93.5946 68.256 93.5946C68.112 93.5946 68.04 93.6673 67.968 93.7399Z" fill="#707070" fill-opacity="0.3"/>
<path d="M79.56 97.2279L78.408 95.6293H77.616V97.2279H76.968V93.0859H78.48C78.912 93.0859 79.2 93.2313 79.488 93.4493C79.776 93.6673 79.848 93.9579 79.848 94.3939C79.848 94.6846 79.776 94.9026 79.632 95.1206C79.488 95.3386 79.272 95.4839 79.056 95.5566L80.28 97.3006H79.56V97.2279ZM77.616 95.0479H78.48C78.696 95.0479 78.912 94.9753 78.984 94.8299C79.128 94.6846 79.2 94.5393 79.2 94.3213C79.2 94.1033 79.128 93.9579 78.984 93.8126C78.84 93.6673 78.696 93.5946 78.48 93.5946H77.616V95.0479Z" fill="#707070" fill-opacity="0.3"/>
<path d="M86.256 93.6673H84.24V94.7573H85.752V95.3386H84.24V96.6466H86.256V97.2279H83.52V93.0859H86.256V93.6673Z" fill="#707070" fill-opacity="0.3"/>
<path d="M91.944 93.2315C92.16 93.3768 92.376 93.5221 92.52 93.7401L92.088 94.1035C91.872 93.7401 91.584 93.5948 91.224 93.5948C91.08 93.5948 90.936 93.6675 90.792 93.7401C90.648 93.8128 90.576 93.9581 90.576 94.1035C90.576 94.2488 90.648 94.3215 90.72 94.4668C90.792 94.5395 90.936 94.6121 91.152 94.7574L91.584 94.9755C91.944 95.1208 92.16 95.2661 92.304 95.4841C92.448 95.6294 92.52 95.9201 92.52 96.1381C92.52 96.5015 92.376 96.7921 92.16 97.0101C91.872 97.2281 91.584 97.3735 91.152 97.3735C90.792 97.3735 90.504 97.3008 90.216 97.1555C89.928 97.0101 89.712 96.7921 89.568 96.5015L90.072 96.1381C90.36 96.5741 90.72 96.7921 91.152 96.7921C91.368 96.7921 91.512 96.7195 91.656 96.6468C91.8 96.5741 91.872 96.4288 91.872 96.2108C91.872 96.0654 91.8 95.9201 91.728 95.8474C91.656 95.7748 91.512 95.7021 91.296 95.5568L90.864 95.3388C90.576 95.1935 90.288 95.0481 90.144 94.8301C90 94.6848 89.856 94.3941 89.856 94.1761C89.856 93.8128 90 93.5948 90.216 93.3768C90.432 93.1588 90.792 93.0861 91.152 93.0861C91.44 93.0135 91.728 93.0861 91.944 93.2315Z" fill="#707070" fill-opacity="0.3"/>
<path d="M99.504 93.6677C99.936 94.1037 100.152 94.6123 100.152 95.1937C100.152 95.775 99.936 96.2837 99.504 96.7197C99.072 97.1557 98.568 97.3737 97.992 97.3737C97.416 97.3737 96.912 97.1557 96.48 96.7197C96.048 96.2837 95.832 95.775 95.832 95.1937C95.832 94.6123 96.048 94.1037 96.48 93.6677C96.912 93.2317 97.416 93.0137 97.992 93.0137C98.568 93.0137 99.072 93.2317 99.504 93.6677ZM96.912 94.1037C96.624 94.3943 96.48 94.7577 96.48 95.1937C96.48 95.6297 96.624 95.993 96.912 96.2837C97.2 96.5743 97.56 96.7197 97.992 96.7197C98.424 96.7197 98.784 96.5743 99.072 96.2837C99.36 95.993 99.504 95.6297 99.504 95.1937C99.504 94.7577 99.36 94.3943 99.072 94.1037C98.784 93.813 98.424 93.6677 97.992 93.6677C97.56 93.6677 97.2 93.813 96.912 94.1037Z" fill="#707070" fill-opacity="0.3"/>
<path d="M106.056 97.2279L104.904 95.6293H104.112V97.2279H103.464V93.0859H104.976C105.408 93.0859 105.696 93.2313 105.984 93.4493C106.272 93.6673 106.344 93.9579 106.344 94.3939C106.344 94.6846 106.272 94.9026 106.128 95.1206C105.984 95.3386 105.768 95.4839 105.552 95.5566L106.776 97.3006H106.056V97.2279ZM104.112 95.0479H104.976C105.192 95.0479 105.408 94.9753 105.48 94.8299C105.624 94.6846 105.696 94.5393 105.696 94.3213C105.696 94.1033 105.624 93.9579 105.48 93.8126C105.336 93.6673 105.192 93.5946 104.976 93.5946H104.112V95.0479Z" fill="#707070" fill-opacity="0.3"/>
<path d="M113.472 93.6673H112.104V97.2279H111.456V93.6673H110.088V93.0859H113.544V93.6673H113.472Z" fill="#707070" fill-opacity="0.3"/>
<path d="M17.28 87.1999C17.424 87.3453 17.568 87.4179 17.712 87.4179V87.7086H13.68V87.4179C14.04 87.4179 14.256 87.3453 14.4 87.2726C14.544 87.1999 14.616 87.0546 14.616 86.9093C14.616 86.7639 14.544 86.5459 14.472 86.2553L13.68 84.0026H10.728L10.368 84.9473C10.152 85.6013 10.008 86.1099 10.008 86.4733C10.008 86.8366 10.08 87.0546 10.296 87.1999C10.512 87.3453 10.8 87.4179 11.16 87.4179V87.7086H8.496V87.4179C8.928 87.3453 9.288 86.8366 9.648 85.9646L12.672 78.0439H13.68L16.92 86.5459C16.992 86.9093 17.136 87.1273 17.28 87.1999ZM13.536 83.7846L12.24 80.1513L10.872 83.7846H13.536Z" fill="#707070" fill-opacity="0.3"/>
<path d="M26.424 84.2212C26.136 83.4945 25.848 83.2039 25.416 83.2039H24.552V86.3285C24.552 86.6919 24.552 86.9099 24.624 87.0552C24.696 87.2005 24.768 87.3459 24.912 87.3459C25.056 87.4185 25.272 87.4185 25.56 87.4185V87.7092H21.456V87.4185C21.744 87.4185 21.96 87.3459 22.104 87.3459C22.248 87.2732 22.32 87.2005 22.392 87.0552C22.464 86.9099 22.464 86.6192 22.464 86.3285V79.5705C22.464 79.2072 22.464 78.9892 22.392 78.8439C22.32 78.6985 22.248 78.5532 22.104 78.5532C21.96 78.4805 21.744 78.4805 21.456 78.4079V78.1172H25.56C26.784 78.1172 27.72 78.3352 28.368 78.7712C29.016 79.2072 29.304 79.7885 29.304 80.5152C29.304 81.1692 29.088 81.7505 28.584 82.1865C28.152 82.6952 27.36 82.9859 26.28 83.1312C27.072 83.2039 27.72 83.4219 28.152 83.7852C28.584 84.1485 28.944 84.8025 29.232 85.6745C29.52 86.5465 29.736 87.0552 29.88 87.2005C30.024 87.3459 30.24 87.4185 30.456 87.4912V87.7819H27.648C27.072 86.1105 26.712 84.9479 26.424 84.2212ZM24.552 79.5705V82.9132H25.128C25.848 82.9132 26.352 82.6952 26.64 82.3319C26.928 81.9685 27.072 81.3872 27.072 80.6605C27.072 79.9339 26.928 79.3525 26.712 78.9892C26.424 78.6259 26.064 78.4079 25.416 78.4079C25.2 78.4079 24.984 78.4079 24.912 78.4805C24.768 78.5532 24.696 78.6259 24.696 78.8439C24.624 78.9892 24.552 79.2072 24.552 79.5705Z" fill="#707070" fill-opacity="0.3"/>
<path d="M38.232 78.4079C37.944 78.4079 37.728 78.4805 37.584 78.5532C37.44 78.6259 37.368 78.6985 37.296 78.8439C37.224 78.9892 37.224 79.2799 37.224 79.5705V86.3285C37.224 86.6919 37.224 86.9099 37.296 87.0552C37.368 87.2005 37.44 87.3459 37.584 87.3459C37.728 87.4185 37.944 87.4185 38.232 87.4185V87.7092H34.128V87.4185C34.416 87.4185 34.632 87.3459 34.776 87.3459C34.92 87.2732 34.992 87.2005 35.064 87.0552C35.136 86.9099 35.136 86.6192 35.136 86.3285V79.5705C35.136 79.2072 35.136 78.9892 35.064 78.8439C34.992 78.6985 34.92 78.5532 34.776 78.5532C34.632 78.4805 34.416 78.4805 34.128 78.4079V78.1172H38.232V78.4079Z" fill="#707070" fill-opacity="0.3"/>
<path d="M50.688 87.1999C50.832 87.3453 50.976 87.4179 51.12 87.4179V87.7086H47.088V87.4179C47.448 87.4179 47.664 87.3453 47.808 87.2726C47.952 87.1999 48.024 87.0546 48.024 86.9093C48.024 86.7639 47.952 86.5459 47.88 86.2553L47.088 84.0026H44.136L43.776 84.9473C43.56 85.6013 43.416 86.1099 43.416 86.4733C43.416 86.8366 43.488 87.0546 43.704 87.1999C43.92 87.3453 44.208 87.4179 44.568 87.4179V87.7086H41.904V87.4179C42.336 87.3453 42.696 86.8366 43.056 85.9646L46.08 78.0439H47.016L50.256 86.5459C50.4 86.9093 50.544 87.1273 50.688 87.1999ZM46.944 83.7846L45.648 80.1513L44.28 83.7846H46.944Z" fill="#707070" fill-opacity="0.3"/>
<path d="M123.552 87.2005C123.696 87.3459 123.84 87.4185 123.984 87.4185V87.7092H119.952V87.4185C120.312 87.4185 120.528 87.3459 120.672 87.2732C120.816 87.2005 120.888 87.0552 120.888 86.9099C120.888 86.7645 120.816 86.5465 120.744 86.2559L119.952 84.0032H117L116.64 85.0205C116.424 85.6745 116.28 86.1832 116.28 86.5465C116.28 86.9099 116.352 87.1279 116.568 87.2732C116.784 87.4185 117.072 87.4912 117.432 87.4912V87.7819H114.768V87.4912C115.2 87.4185 115.56 86.9099 115.92 86.0379L118.944 78.1172H119.88L123.12 86.6192C123.264 86.9099 123.408 87.1279 123.552 87.2005ZM119.808 83.7852L118.512 80.1519L117.144 83.7852H119.808Z" fill="#707070" fill-opacity="0.3"/>
<path d="M58.68 78.6259C58.536 78.4805 58.392 78.4079 58.248 78.4079V78.1172H62.28V78.4079C61.92 78.4079 61.704 78.4805 61.56 78.5532C61.416 78.6259 61.344 78.7712 61.344 78.9165C61.344 79.0619 61.416 79.2799 61.488 79.5705L62.28 81.8232L63.72 85.7472L65.592 80.8785C65.808 80.2245 65.952 79.7159 65.952 79.3525C65.952 78.9892 65.88 78.7712 65.664 78.6259C65.448 78.4805 65.16 78.4079 64.8 78.4079V78.1172H67.464V78.4079C67.032 78.4805 66.672 78.9892 66.312 79.8612L63.288 87.7819H62.352L59.112 79.2799C58.968 78.9892 58.824 78.7712 58.68 78.6259Z" fill="#707070" fill-opacity="0.3"/>
<path d="M90.72 78.4073C90.432 78.4799 90.216 78.5526 90.072 78.6253C89.928 78.6979 89.856 78.9159 89.784 79.1339C89.712 79.3519 89.712 79.7153 89.712 80.1513V87.7086H88.992L83.16 80.2239V85.4559C83.16 85.9646 83.16 86.4006 83.232 86.6186C83.304 86.8366 83.376 87.0546 83.592 87.1273C83.736 87.2726 84.024 87.3453 84.456 87.3453V87.6359H81.864V87.3453C82.152 87.2726 82.368 87.1999 82.512 87.1273C82.656 87.0546 82.728 86.8366 82.8 86.6186C82.872 86.4006 82.872 86.0373 82.872 85.6013V79.4973C82.872 79.1339 82.872 78.9159 82.8 78.7706C82.728 78.6253 82.656 78.4799 82.512 78.4799C82.368 78.4073 82.152 78.4073 81.864 78.3346V78.0439H84.168L89.352 84.5113V80.2966C89.352 79.7879 89.352 79.3519 89.28 79.1339C89.208 78.9159 89.136 78.6979 88.92 78.6253C88.776 78.4799 88.416 78.4073 88.056 78.4073V78.1166H90.648V78.4073H90.72Z" fill="#707070" fill-opacity="0.3"/>
<path d="M98.928 78.1168C99.288 78.2622 99.648 78.4802 100.08 78.7708C100.224 78.8435 100.296 78.9162 100.368 78.9162C100.44 78.9162 100.512 78.8435 100.584 78.6982C100.656 78.5528 100.656 78.3348 100.728 78.0442H101.016C101.016 78.6255 100.944 79.7882 100.944 81.3142H100.656C100.584 80.6602 100.512 80.2242 100.368 79.7882C100.224 79.4248 100.008 79.0615 99.648 78.8435C99.432 78.6255 99.144 78.4802 98.856 78.3348C98.568 78.1895 98.208 78.1895 97.92 78.1895C97.272 78.1895 96.768 78.4075 96.336 78.8435C95.904 79.2795 95.616 79.8608 95.4 80.5148C95.184 81.2415 95.112 81.9682 95.112 82.8402C95.112 85.9648 95.976 87.5635 97.704 87.5635C98.064 87.5635 98.424 87.4908 98.64 87.2728C98.784 87.2002 98.856 87.1275 98.856 86.9822C98.928 86.9095 98.928 86.7642 98.928 86.5462V85.2382C98.928 84.8022 98.928 84.5115 98.856 84.2935C98.784 84.0755 98.64 83.9302 98.496 83.8575C98.28 83.7848 97.992 83.7122 97.632 83.7122V83.5668H101.736V83.8575C101.592 83.8575 101.448 83.9302 101.376 84.0028C101.304 84.0755 101.232 84.1482 101.232 84.2935C101.232 84.4388 101.16 84.7295 101.16 85.0202V87.7088H100.872C100.872 87.4908 100.8 87.3455 100.728 87.2002C100.656 87.0548 100.584 86.9822 100.44 86.9822C100.296 86.9822 100.08 87.0548 99.72 87.2728C98.928 87.7088 98.208 87.9268 97.56 87.9268C96.048 87.9268 94.824 87.4908 94.032 86.6188C93.24 85.7468 92.808 84.5842 92.808 82.9855C92.808 81.9682 93.024 81.0962 93.456 80.2968C93.888 79.4975 94.464 78.9162 95.184 78.4802C95.904 78.0442 96.768 77.8262 97.704 77.8262C98.064 77.8988 98.496 77.9715 98.928 78.1168Z" fill="#707070" fill-opacity="0.3"/>
<path d="M111.816 78.4805H110.448V86.1832C110.448 86.7645 110.52 87.1279 110.664 87.3459C110.808 87.5639 111.024 87.6365 111.384 87.6365V87.9272H107.712V87.6365C108.144 87.6365 108.36 87.4912 108.504 87.2732C108.648 87.0552 108.72 86.6919 108.72 86.1105V78.4805H107.64C106.992 78.4805 106.56 78.5532 106.272 78.7712C105.984 78.9892 105.84 79.3525 105.768 79.7885H105.48V78.1172H113.688V79.7885H113.544C113.4 79.2799 113.256 78.9165 112.896 78.6985C112.536 78.5532 112.104 78.4805 111.816 78.4805Z" fill="#707070" fill-opacity="0.3"/>
<path d="M76.32 87.6361V86.4008C75.744 86.9821 75.24 87.3455 74.808 87.5635C74.376 87.7815 73.872 87.8541 73.296 87.8541C72.36 87.8541 71.568 87.5635 70.992 86.9821C70.416 86.4008 70.128 85.6741 70.128 84.7295V79.7881C70.128 79.3521 70.056 79.0615 69.912 78.9161C69.768 78.7708 69.408 78.6255 68.976 78.4801V78.1895H73.368V78.4801C72.864 78.6255 72.576 78.6981 72.432 78.9161C72.288 79.0615 72.216 79.4248 72.216 79.8608V85.1655C72.216 85.7468 72.36 86.1828 72.648 86.5461C72.936 86.9095 73.368 87.0548 73.944 87.0548C74.736 87.0548 75.528 86.6188 76.32 85.7468V79.8608C76.32 79.4248 76.248 79.1341 76.104 78.9888C75.96 78.8435 75.672 78.6981 75.168 78.5528V78.2621H79.56V78.5528C79.128 78.6255 78.84 78.7708 78.624 78.9888C78.48 79.1341 78.408 79.5701 78.408 80.0788V86.1101C78.408 86.5461 78.48 86.8368 78.624 86.9821C78.768 87.1275 79.056 87.2728 79.56 87.4181V87.7088H76.32V87.6361Z" fill="#707070" fill-opacity="0.3"/>
<path d="M132.264 87.6361V86.4008C131.688 86.9821 131.184 87.3455 130.752 87.5635C130.32 87.7815 129.816 87.8541 129.24 87.8541C128.304 87.8541 127.512 87.5635 126.936 86.9821C126.36 86.4008 126.072 85.6741 126.072 84.7295V79.7881C126.072 79.3521 126 79.0615 125.856 78.9161C125.712 78.7708 125.352 78.6255 124.92 78.4801V78.1895H129.312V78.4801C128.808 78.6255 128.52 78.6981 128.376 78.9161C128.232 79.0615 128.16 79.4248 128.16 79.8608V85.1655C128.16 85.7468 128.304 86.1828 128.592 86.5461C128.88 86.9095 129.312 87.0548 129.888 87.0548C130.68 87.0548 131.472 86.6188 132.264 85.7468V79.8608C132.264 79.4248 132.192 79.1341 132.048 78.9888C131.904 78.8435 131.616 78.6981 131.112 78.5528V78.2621H135.504V78.5528C135.072 78.6255 134.784 78.7708 134.568 78.9888C134.424 79.1341 134.352 79.5701 134.352 80.0788V86.1101C134.352 86.5461 134.424 86.8368 134.568 86.9821C134.712 87.1275 135 87.2728 135.504 87.4181V87.7088H132.264V87.6361Z" fill="#707070" fill-opacity="0.3"/>
</svg>
